<svg width="29" height="50" viewBox="0 0 29 50" fill="none" xmlns="http://www.w3.org/2000/svg">
<path d="M10.0659 17.0279C11.3003 15.9225 12.6155 16.6763 14.4295 15.5887C14.8871 15.3124 15.9058 14.6064 17.5312 10.985C19.4993 6.60308 20.8495 3.59163 19.4167 1.70993C18.689 0.75339 17.5534 0.510271 16.4975 0.285633C12.2285 -0.624831 8.11558 2.27734 7.66386 2.60238C6.08261 3.74754 5.05236 5.03919 4.3493 6.08269C0.687148 11.5038 -0.584813 19.7172 0.745574 27.2632C1.90326 33.8278 4.67992 37.9608 6.62934 40.8388C7.33236 41.875 9.03579 44.2762 12.0115 46.5233C14.6746 48.5363 16.476 49.0074 17.4849 49.1939C18.6449 49.4081 20.3228 49.717 22.4263 49.056C24.8451 48.2941 27.9009 46.2269 28.3864 43.808C28.4679 43.3992 28.9219 43.8552 27.383 40.2599C25.9502 36.9101 25.1803 35.6781 24.4487 35.26C22.8665 34.3555 20.8611 34.7126 20.3892 34.8085C17.7301 35.3514 16.6365 37.1473 15.1437 36.837C14.4237 36.6896 14.0869 36.1531 13.4713 35.0015C12.0577 32.3645 11.3508 31.046 10.689 29.0562C9.67893 26.0146 9.16977 24.446 9.04711 22.1381C8.9284 19.9035 8.85682 18.11 10.0659 17.0279Z" fill="#125956"/>
</svg>
