<svg width="48" height="58" viewBox="0 0 48 58" fill="none" xmlns="http://www.w3.org/2000/svg">
<path d="M15.2438 16.3787C18.1932 12.2355 15.1077 1.47326 10.7971 0.563769C6.89484 -0.244662 0.315481 6.77859 0.179356 13.3976C-0.0928931 25.9283 15.2438 50.3834 25.9069 56.3456C31.6695 59.5793 40.4723 53.1624 40.9714 48.4633C41.5159 43.3601 33.0308 36.6906 28.9924 38.6106C26.6783 39.7222 26.8598 43.2591 24.9994 43.5622C22.9575 43.9159 21.5509 39.8232 17.0134 32.6989C12.113 24.9683 8.93671 22.2904 9.93496 19.8651C10.7971 17.7429 13.5649 18.804 15.2438 16.4292V16.3787Z" fill="#125956"/>
<path opacity="0.2" d="M24.5005 13.75C25.7256 13.9521 29.9455 14.8616 33.2578 19.0048C37.5685 24.4617 36.8425 31.0808 36.7063 32.0913" stroke="#125956" stroke-width="2" stroke-miterlimit="10" stroke-linecap="round"/>
<path d="M27.269 4.35156C29.2655 4.75578 36.1171 6.52422 41.2445 13.4969C47.96 22.6423 46.4626 33.4046 46.1904 35.0214" stroke="#125956" stroke-width="2" stroke-miterlimit="10" stroke-linecap="round"/>
</svg>
